<svg id="visual" viewBox="0 0 960 2000" width="960" height="2000" xmlns="http://www.w3.org/2000/svg" xmlns:xlink="http://www.w3.org/1999/xlink" version="1.1"><path d="M0 821L14.5 794.3C29 767.7 58 714.3 87.2 667.7C116.3 621 145.7 581 174.8 637.7C204 694.3 233 847.7 262 837.7C291 827.7 320 654.3 349 624.3C378 594.3 407 707.7 436.2 717.7C465.3 727.7 494.7 634.3 523.8 571C553 507.7 582 474.3 611 524.3C640 574.3 669 707.7 698 691C727 674.3 756 507.7 785.2 481C814.3 454.3 843.7 567.7 872.8 591C902 614.3 931 547.7 945.5 514.3L960 481L960 0L945.5 0C931 0 902 0 872.8 0C843.7 0 814.3 0 785.2 0C756 0 727 0 698 0C669 0 640 0 611 0C582 0 553 0 523.8 0C494.7 0 465.3 0 436.2 0C407 0 378 0 349 0C320 0 291 0 262 0C233 0 204 0 174.8 0C145.7 0 116.3 0 87.2 0C58 0 29 0 14.5 0L0 0Z" fill="#845fc8"></path><path d="M0 1261L14.5 1221C29 1181 58 1101 87.2 1081C116.3 1061 145.7 1101 174.8 1131C204 1161 233 1181 262 1147.7C291 1114.3 320 1027.7 349 1004.3C378 981 407 1021 436.2 1027.7C465.3 1034.3 494.7 1007.7 523.8 984.3C553 961 582 941 611 967.7C640 994.3 669 1067.7 698 1014.3C727 961 756 781 785.2 781C814.3 781 843.7 961 872.8 1037.7C902 1114.3 931 1087.7 945.5 1074.3L960 1061L960 479L945.5 512.3C931 545.7 902 612.3 872.8 589C843.7 565.7 814.3 452.3 785.2 479C756 505.7 727 672.3 698 689C669 705.7 640 572.3 611 522.3C582 472.3 553 505.7 523.8 569C494.7 632.3 465.3 725.7 436.2 715.7C407 705.7 378 592.3 349 622.3C320 652.3 291 825.7 262 835.7C233 845.7 204 692.3 174.8 635.7C145.7 579 116.3 619 87.2 665.7C58 712.3 29 765.7 14.5 792.3L0 819Z" fill="#9674d2"></path><path d="M0 1621L14.5 1617.7C29 1614.3 58 1607.7 87.2 1614.3C116.3 1621 145.7 1641 174.8 1637.7C204 1634.3 233 1607.7 262 1594.3C291 1581 320 1581 349 1554.3C378 1527.7 407 1474.3 436.2 1441C465.3 1407.7 494.7 1394.3 523.8 1401C553 1407.7 582 1434.3 611 1464.3C640 1494.3 669 1527.7 698 1517.7C727 1507.7 756 1454.3 785.2 1447.7C814.3 1441 843.7 1481 872.8 1527.7C902 1574.3 931 1627.7 945.5 1654.3L960 1681L960 1059L945.5 1072.3C931 1085.7 902 1112.3 872.8 1035.7C843.7 959 814.3 779 785.2 779C756 779 727 959 698 1012.3C669 1065.7 640 992.3 611 965.7C582 939 553 959 523.8 982.3C494.7 1005.7 465.3 1032.3 436.2 1025.7C407 1019 378 979 349 1002.3C320 1025.7 291 1112.3 262 1145.7C233 1179 204 1159 174.8 1129C145.7 1099 116.3 1059 87.2 1079C58 1099 29 1179 14.5 1219L0 1259Z" fill="#a78adc"></path><path d="M0 1841L14.5 1827.7C29 1814.3 58 1787.7 87.2 1787.7C116.3 1787.7 145.7 1814.3 174.8 1831C204 1847.7 233 1854.3 262 1844.3C291 1834.3 320 1807.7 349 1787.7C378 1767.7 407 1754.3 436.2 1721C465.3 1687.7 494.7 1634.3 523.8 1641C553 1647.7 582 1714.3 611 1744.3C640 1774.3 669 1767.7 698 1761C727 1754.3 756 1747.7 785.2 1734.3C814.3 1721 843.7 1701 872.8 1711C902 1721 931 1761 945.5 1781L960 1801L960 1679L945.5 1652.3C931 1625.7 902 1572.3 872.8 1525.7C843.7 1479 814.3 1439 785.2 1445.7C756 1452.3 727 1505.7 698 1515.7C669 1525.7 640 1492.3 611 1462.3C582 1432.3 553 1405.7 523.8 1399C494.7 1392.3 465.3 1405.7 436.2 1439C407 1472.3 378 1525.7 349 1552.3C320 1579 291 1579 262 1592.3C233 1605.7 204 1632.3 174.8 1635.7C145.7 1639 116.3 1619 87.2 1612.3C58 1605.7 29 1612.3 14.5 1615.7L0 1619Z" fill="#b8a0e6"></path><path d="M0 2001L14.5 2001C29 2001 58 2001 87.2 2001C116.3 2001 145.7 2001 174.8 2001C204 2001 233 2001 262 2001C291 2001 320 2001 349 2001C378 2001 407 2001 436.2 2001C465.3 2001 494.7 2001 523.8 2001C553 2001 582 2001 611 2001C640 2001 669 2001 698 2001C727 2001 756 2001 785.2 2001C814.3 2001 843.7 2001 872.8 2001C902 2001 931 2001 945.5 2001L960 2001L960 1799L945.5 1779C931 1759 902 1719 872.8 1709C843.7 1699 814.3 1719 785.2 1732.3C756 1745.7 727 1752.3 698 1759C669 1765.7 640 1772.3 611 1742.3C582 1712.3 553 1645.7 523.8 1639C494.7 1632.3 465.3 1685.7 436.2 1719C407 1752.3 378 1765.7 349 1785.7C320 1805.7 291 1832.3 262 1842.3C233 1852.3 204 1845.7 174.8 1829C145.7 1812.3 116.3 1785.7 87.2 1785.7C58 1785.7 29 1812.3 14.5 1825.7L0 1839Z" fill="#cab6f0"></path></svg>