<svg id="visual" viewBox="0 0 960 300" width="960" height="300" xmlns="http://www.w3.org/2000/svg" xmlns:xlink="http://www.w3.org/1999/xlink" version="1.1"><path d="M0 112L22.8 110.8C45.7 109.7 91.3 107.3 137 101.8C182.7 96.3 228.3 87.7 274 88.7C319.7 89.7 365.3 100.3 411.2 102.2C457 104 503 97 548.8 95.2C594.7 93.3 640.3 96.7 686 95C731.7 93.3 777.3 86.7 823 88.7C868.7 90.7 914.3 101.3 937.2 106.7L960 112L960 0L937.2 0C914.3 0 868.7 0 823 0C777.3 0 731.7 0 686 0C640.3 0 594.7 0 548.8 0C503 0 457 0 411.2 0C365.3 0 319.7 0 274 0C228.3 0 182.7 0 137 0C91.3 0 45.7 0 22.8 0L0 0Z" fill="#a586de"></path><path d="M0 72L22.8 76.8C45.7 81.7 91.3 91.3 137 92.7C182.7 94 228.3 87 274 83.2C319.7 79.3 365.3 78.7 411.2 80.8C457 83 503 88 548.8 85.8C594.7 83.7 640.3 74.3 686 70.2C731.7 66 777.3 67 823 70.5C868.7 74 914.3 80 937.2 83L960 86L960 0L937.2 0C914.3 0 868.7 0 823 0C777.3 0 731.7 0 686 0C640.3 0 594.7 0 548.8 0C503 0 457 0 411.2 0C365.3 0 319.7 0 274 0C228.3 0 182.7 0 137 0C91.3 0 45.7 0 22.8 0L0 0Z" fill="#9580d9"></path><path d="M0 60L22.8 57.5C45.7 55 91.3 50 137 51.2C182.7 52.3 228.3 59.7 274 62.3C319.7 65 365.3 63 411.2 60.2C457 57.3 503 53.7 548.8 54C594.7 54.3 640.3 58.7 686 58.2C731.7 57.7 777.3 52.3 823 53.7C868.7 55 914.3 63 937.2 67L960 71L960 0L937.2 0C914.3 0 868.7 0 823 0C777.3 0 731.7 0 686 0C640.3 0 594.7 0 548.8 0C503 0 457 0 411.2 0C365.3 0 319.7 0 274 0C228.3 0 182.7 0 137 0C91.3 0 45.7 0 22.8 0L0 0Z" fill="#857bd4"></path><path d="M0 37L22.8 39.5C45.7 42 91.3 47 137 46.8C182.7 46.7 228.3 41.3 274 41C319.7 40.7 365.3 45.3 411.2 45.3C457 45.3 503 40.7 548.8 39.7C594.7 38.7 640.3 41.3 686 40.3C731.7 39.3 777.3 34.7 823 34.8C868.7 35 914.3 40 937.2 42.5L960 45L960 0L937.2 0C914.3 0 868.7 0 823 0C777.3 0 731.7 0 686 0C640.3 0 594.7 0 548.8 0C503 0 457 0 411.2 0C365.3 0 319.7 0 274 0C228.3 0 182.7 0 137 0C91.3 0 45.7 0 22.8 0L0 0Z" fill="#7476cf"></path><path d="M0 23L22.8 22.5C45.7 22 91.3 21 137 20.7C182.7 20.3 228.3 20.7 274 23.3C319.7 26 365.3 31 411.2 29.5C457 28 503 20 548.8 19.5C594.7 19 640.3 26 686 26.2C731.7 26.3 777.3 19.7 823 18.3C868.7 17 914.3 21 937.2 23L960 25L960 0L937.2 0C914.3 0 868.7 0 823 0C777.3 0 731.7 0 686 0C640.3 0 594.7 0 548.8 0C503 0 457 0 411.2 0C365.3 0 319.7 0 274 0C228.3 0 182.7 0 137 0C91.3 0 45.7 0 22.8 0L0 0Z" fill="#6371c9"></path></svg>