<svg id="visual" viewBox="0 0 960 300" width="960" height="300" xmlns="http://www.w3.org/2000/svg" xmlns:xlink="http://www.w3.org/1999/xlink" version="1.1"><path d="M0 91L22.8 94.8C45.7 98.7 91.3 106.3 137 109.7C182.7 113 228.3 112 274 106.3C319.7 100.7 365.3 90.3 411.2 90.2C457 90 503 100 548.8 105.7C594.7 111.3 640.3 112.7 686 106.8C731.7 101 777.3 88 823 82C868.7 76 914.3 77 937.2 77.5L960 78L960 0L937.2 0C914.3 0 868.7 0 823 0C777.3 0 731.7 0 686 0C640.3 0 594.7 0 548.8 0C503 0 457 0 411.2 0C365.3 0 319.7 0 274 0C228.3 0 182.7 0 137 0C91.3 0 45.7 0 22.8 0L0 0Z" fill="#ffcba4"></path><path d="M0 70L22.8 71.2C45.7 72.3 91.3 74.7 137 79C182.7 83.3 228.3 89.7 274 90.5C319.7 91.3 365.3 86.7 411.2 83.3C457 80 503 78 548.8 80C594.7 82 640.3 88 686 90.8C731.7 93.7 777.3 93.3 823 89.2C868.7 85 914.3 77 937.2 73L960 69L960 0L937.2 0C914.3 0 868.7 0 823 0C777.3 0 731.7 0 686 0C640.3 0 594.7 0 548.8 0C503 0 457 0 411.2 0C365.3 0 319.7 0 274 0C228.3 0 182.7 0 137 0C91.3 0 45.7 0 22.8 0L0 0Z" fill="#ebb389"></path><path d="M0 53L22.8 54.5C45.7 56 91.3 59 137 57.8C182.7 56.7 228.3 51.3 274 52C319.7 52.7 365.3 59.3 411.2 60C457 60.7 503 55.3 548.8 57.2C594.7 59 640.3 68 686 70C731.7 72 777.3 67 823 61.5C868.7 56 914.3 50 937.2 47L960 44L960 0L937.2 0C914.3 0 868.7 0 823 0C777.3 0 731.7 0 686 0C640.3 0 594.7 0 548.8 0C503 0 457 0 411.2 0C365.3 0 319.7 0 274 0C228.3 0 182.7 0 137 0C91.3 0 45.7 0 22.8 0L0 0Z" fill="#d79b6e"></path><path d="M0 39L22.8 39.8C45.7 40.7 91.3 42.3 137 42.5C182.7 42.7 228.3 41.3 274 40.3C319.7 39.3 365.3 38.7 411.2 41.7C457 44.7 503 51.3 548.8 53.7C594.7 56 640.3 54 686 53.8C731.7 53.7 777.3 55.3 823 52.2C868.7 49 914.3 41 937.2 37L960 33L960 0L937.2 0C914.3 0 868.7 0 823 0C777.3 0 731.7 0 686 0C640.3 0 594.7 0 548.8 0C503 0 457 0 411.2 0C365.3 0 319.7 0 274 0C228.3 0 182.7 0 137 0C91.3 0 45.7 0 22.8 0L0 0Z" fill="#c38454"></path><path d="M0 20L22.8 21.2C45.7 22.3 91.3 24.7 137 24.3C182.7 24 228.3 21 274 20.7C319.7 20.3 365.3 22.7 411.2 22.8C457 23 503 21 548.8 19.8C594.7 18.7 640.3 18.3 686 20C731.7 21.7 777.3 25.3 823 25C868.7 24.7 914.3 20.3 937.2 18.2L960 16L960 0L937.2 0C914.3 0 868.7 0 823 0C777.3 0 731.7 0 686 0C640.3 0 594.7 0 548.8 0C503 0 457 0 411.2 0C365.3 0 319.7 0 274 0C228.3 0 182.7 0 137 0C91.3 0 45.7 0 22.8 0L0 0Z" fill="#ae6d3b"></path></svg>